<?xml version="1.0" encoding="UTF-8" standalone="no"?>
<svg xmlns:rdf="http://www.w3.org/1999/02/22-rdf-syntax-ns#" xmlns="http://www.w3.org/2000/svg" height="100" width="610" version="1.1" xmlns:cc="http://creativecommons.org/ns#" xmlns:dc="http://purl.org/dc/elements/1.1/" viewBox="0 0 610.00001 100">
 <g fill="#1d1d1d" transform="matrix(0 .19493 -.19493 0 99.902 .051592)">
  <path d="m313 211s-1 1-2 1c29 32 47 74 47 121 0 99-80 179-179 179s-179-80-179-179 80-179 179-179c47 0 89 18 121 47 0-1 1-2 1-2l196-197c2-1 4-2 6-2 3 0 5 1 7 2 3 4 3 9 0 13zm-134-40c-89 0-162 72-162 162 0 89 73 162 162 162 90 0 162-73 162-162 0-90-72-162-162-162z" fill="#1d1d1d"/>
 </g>
 <g fill="#898989" transform="matrix(.19489 0 0 .19489 187.24 .18934)">
  <path d="m357 509c-4 4-9 4-12 1l-256-248c-2-1-3-4-3-6s1-5 3-6l256-248c1-1 3-2 6-2 2 0 4 1 6 3 3 3 3 8-1 12l-249 241 249 241c4 4 4 9 1 12z" fill="#898989"/>
 </g>
 <g fill="#898989" transform="matrix(.19489 0 0 .19489 285.95 .18934)">
  <path d="m105 3c2-2 4-3 7-3 2 0 4 1 6 2l256 248c1 1 2 4 2 6s-1 5-2 6l-256 248c-4 3-9 3-13-1-3-3-3-8 1-12l249-241-249-241c-4-4-4-9-1-12z" fill="#898989"/>
 </g>
 <g fill="#1d1d1d" transform="matrix(-.19484 0 0 -.19484 508.05 116.46)">
  <path d="m498 355-241-250-241 250c-4 4-9 4-13 0-3-3-3-8 0-12l248-256c1-1 4-2 6-2s4 1 6 2l247 256c4 4 4 9 0 12-3 4-9 4-12 0z" fill="#1d1d1d"/>
 </g>
 <g transform="matrix(.19484 0 0 .19484 102.1 .1445)">
  <path d="m510 509c-4 4-9 4-13 0l-241-241-241 241c-4 4-9 4-12 0-4-3-4-8 0-12l241-241-241-241c-4-4-4-9 0-13 1-1 3-2 6-2 2 0 4 1 6 2l241 242 241-242c2-1 4-2 6-2 3 0 5 1 7 2 3 4 3 9 0 13l-242 241 242 241c3 4 3 9 0 12z"/>
 </g>
 <g stroke-linejoin="round" transform="matrix(3.3325 0 0 3.3325 510.02 13.354)" stroke="#231f20" stroke-linecap="round" stroke-miterlimit="10" fill="none">
  <circle cx="24" cy="23.5" r="2"/>
  <circle cx="10.5" cy="23.5" r="2"/>
  <polyline points="0.5 0.5 4.913 0.5 10 21.5 24 21.5"/>
  <polyline points="9.516 19.5 25.717 19.5 29.5 7.5 7 7.5"/>
 </g>
</svg>
