<svg xmlns="http://www.w3.org/2000/svg" width="48" height="48" viewBox="0 0 48 48">
  <g fill="#898989">
    <path d="M32 40c-2.206 0-4 1.794-4 4s1.794 4 4 4 4-1.794 4-4-1.794-4-4-4zm0 6c-1.103 0-2-.897-2-2s.897-2 2-2c1.102 0 2 .897 2 2s-.898 2-2 2zM10 40c-2.206 0-4 1.794-4 4s1.794 4 4 4 4-1.794 4-4-1.794-4-4-4zm0 6c-1.103 0-2-.897-2-2s.897-2 2-2c1.102 0 2 .897 2 2s-.898 2-2 2zM47 6h-3c-.5 0-.925.37-.99.868L39.123 36H1c-.553 0-1 .448-1 1s.447 1 1 1h39c.5 0 .925-.37.99-.868L44.877 8H47c.553 0 1-.448 1-1s-.447-1-1-1z" />
  </g>
</svg>
